<svg width="500" height="500" viewBox="0 0 500 500" fill="none" xmlns="http://www.w3.org/2000/svg">
<g clip-path="url(#clip0_1_84)">
<path d="M550 -50H-50V550H550V-50Z" fill="white"/>
<path d="M500 0H0V500H500V0Z" fill="#34385C"/>
<path d="M128.396 182.417C128.224 182.25 122.651 176.839 118.615 184.568C114.578 192.297 127.505 223.656 127.745 224.245C127.568 224.021 121.641 216.573 113.635 228.729C105.562 241.078 132.099 270.818 132.099 270.818C130.427 271.568 128.849 272.495 127.38 273.594C125.906 274.693 124.573 275.938 123.375 277.328C122.172 278.719 121.141 280.224 120.266 281.844C119.396 283.458 118.714 285.151 118.214 286.922C114.714 299.078 138.807 304.089 138.807 304.089C138.807 304.089 132.443 309.307 133.479 320.26C134.927 335.786 163.302 326.229 163.302 326.229C163.302 326.229 146.104 335.557 151.073 351.156C156.042 366.75 193.016 358.641 201.411 348.464C202.984 346.557 204.854 343.25 206.865 339.12C208.349 336.073 209.906 332.578 211.479 328.88C217.115 315.516 221.339 301.719 224.151 287.495C226.964 273.266 228.307 258.901 228.182 244.396C227.958 223.063 226.229 200.589 220.276 194.531C212.375 186.438 184.531 155.99 163.193 131.078C154.13 120.469 146.224 110.875 141.531 104.427C139.943 102.24 137.016 102.734 135.458 105.5C130.656 114.083 123.542 132.411 135.396 151.984C135.396 151.984 110.995 144.823 128.396 182.417Z" fill="#6E84AF"/>
<path d="M159.786 203.875C159.615 203.651 153.682 196.203 145.703 208.354C137.604 220.688 164.141 250.448 164.141 250.448C162.464 251.203 160.891 252.13 159.422 253.229C157.948 254.328 156.615 255.573 155.417 256.964C154.214 258.354 153.182 259.859 152.307 261.479C151.437 263.094 150.755 264.786 150.255 266.552C146.76 278.714 170.828 283.719 170.828 283.719C170.828 283.719 164.479 288.943 165.505 299.891C166.953 315.417 195.328 305.865 195.328 305.865C195.328 305.865 178.167 315.193 183.099 330.776C185.573 338.542 195.99 340.427 206.854 339.115C209.073 334.568 211.448 329.026 213.776 323.307C218.516 311.563 222.099 299.479 224.526 287.052C226.948 274.62 228.177 262.073 228.198 249.411C228.198 226.708 226.687 201.078 220.297 194.542C212.391 186.448 184.547 156 163.208 131.089C157.115 131.089 147.891 134.922 160.443 162.063C160.266 161.891 154.693 156.49 150.656 164.214C146.62 171.932 159.542 203.292 159.786 203.875Z" fill="#59739D"/>
<path d="M243.224 389.885C243.224 389.885 229.911 418.406 226.109 418.406C222.302 418.406 203.292 409.297 198.724 412.682C194.161 416.068 185.417 427.141 188.078 428.281C190.458 429.297 246.812 428.495 258.854 428.313C258.974 428.313 259.094 428.297 259.208 428.26C259.323 428.229 259.432 428.182 259.531 428.125C259.635 428.063 259.729 427.99 259.812 427.906C259.896 427.823 259.969 427.729 260.026 427.625C260.089 427.521 260.13 427.412 260.161 427.297C260.193 427.182 260.208 427.063 260.208 426.943C260.208 426.823 260.193 426.708 260.161 426.594C260.135 426.479 260.089 426.37 260.031 426.266C258.031 422.729 253.568 415.823 249.302 416.104C245.318 416.37 240.406 418.083 237.807 419.094C237.51 419.208 237.266 419.146 237.062 418.906C236.865 418.662 236.844 418.412 237.01 418.141L252.349 392.521L243.224 389.885Z" fill="#FFDE59"/>
<path d="M211.281 362.5C211.281 362.5 232.578 379.229 236.375 389.12C240.177 399.01 253.875 399.01 258.438 394.443C263 389.875 275.938 378.469 284.302 377.714C292.667 376.958 211.281 362.5 211.281 362.5Z" fill="#59739D"/>
<path d="M306.568 389.885C306.568 389.885 319.875 418.406 323.682 418.406C327.484 418.406 346.505 409.297 351.062 412.682C355.625 416.068 364.375 427.141 361.714 428.281C359.339 429.297 302.974 428.495 290.943 428.313C290.823 428.313 290.703 428.297 290.589 428.26C290.474 428.229 290.365 428.182 290.266 428.125C290.161 428.063 290.068 427.99 289.984 427.906C289.901 427.823 289.828 427.729 289.771 427.625C289.708 427.521 289.667 427.412 289.635 427.297C289.604 427.182 289.589 427.063 289.589 426.943C289.589 426.823 289.604 426.708 289.63 426.594C289.661 426.479 289.708 426.37 289.766 426.266C291.76 422.729 296.224 415.823 300.49 416.104C304.479 416.37 309.391 418.083 311.99 419.094C312.281 419.203 312.526 419.141 312.729 418.901C312.932 418.662 312.953 418.412 312.792 418.141L297.448 392.521L306.568 389.885Z" fill="#FFDE59"/>
<path d="M337.87 360.547C337.87 360.547 317.219 379.229 313.411 389.12C309.609 399.01 295.911 399.01 291.354 394.443C286.792 389.875 273.854 378.469 265.49 377.714C257.12 376.958 337.87 360.547 337.87 360.547Z" fill="#59739D"/>
<path d="M286.656 382.057C277.349 382.984 268.052 382.901 258.766 381.802C183.047 373.219 171.271 301.224 204.75 245.323C211.245 234.474 215.474 224.339 218.161 214.719C223.599 195.193 222.599 177.807 221.01 160.974C219.318 143.344 217.063 126.328 220.781 108.099C228.443 70.7344 258.016 72.0365 267.016 73.3438C268.672 73.5834 269.63 73.8282 269.63 73.8282C302.901 80.7136 308.969 118.557 312.464 158.5C313.073 165.427 313.594 172.406 314.156 179.313C315.146 191.047 315.99 200.927 316.693 209.141C316.974 212.438 317.411 215.708 318 218.953C319.333 226.385 321.458 233.589 324.375 240.563C327.292 247.531 330.932 254.099 335.292 260.271C340.719 267.932 347.052 278.698 353.438 293.526C369.115 329.927 343.286 376.12 286.656 382.057Z" fill="#59739D"/>
<path d="M286.656 382.057C282.974 381.938 279.193 381.661 275.312 381.229C199.62 372.656 187.802 300.661 221.292 244.755C227.792 233.906 232.021 223.771 234.708 214.151C240.141 194.62 239.151 177.234 237.557 160.401C235.896 142.781 233.604 125.76 237.328 107.526C242.12 84.151 255.5 75.9219 267.016 73.3438C268.672 73.5833 269.63 73.8281 269.63 73.8281C302.901 80.7135 308.969 118.557 312.464 158.5C313.073 165.427 313.594 172.406 314.156 179.312C315.146 191.047 315.99 200.927 316.693 209.141C316.974 212.438 317.411 215.708 318 218.953C319.333 226.385 321.458 233.589 324.375 240.562C327.292 247.531 330.932 254.099 335.292 260.271C340.719 267.932 347.052 278.698 353.438 293.526C369.115 329.927 343.286 376.12 286.656 382.057Z" fill="#6E84AF"/>
<path d="M253.396 109.047C253.755 109.906 254.021 110.797 254.203 111.708C254.385 112.625 254.479 113.547 254.479 114.479C254.479 115.411 254.385 116.333 254.203 117.25C254.021 118.161 253.755 119.052 253.396 119.911C253.042 120.776 252.604 121.594 252.083 122.365C251.568 123.141 250.979 123.859 250.318 124.516C249.661 125.177 248.943 125.766 248.167 126.281C247.391 126.802 246.573 127.24 245.714 127.594C244.849 127.953 243.964 128.224 243.047 128.401C242.135 128.583 241.214 128.677 240.281 128.677C239.349 128.677 238.422 128.583 237.51 128.401C236.594 128.224 235.708 127.953 234.849 127.594C233.984 127.24 233.167 126.802 232.391 126.281C231.62 125.766 230.901 125.177 230.24 124.516C229.583 123.859 228.995 123.141 228.474 122.365C227.958 121.594 227.521 120.776 227.161 119.911C226.807 119.052 226.536 118.161 226.354 117.25C226.172 116.333 226.083 115.411 226.083 114.479C226.083 113.547 226.172 112.625 226.354 111.708C226.536 110.797 226.807 109.906 227.161 109.047C227.521 108.188 227.958 107.365 228.474 106.594C228.995 105.818 229.583 105.099 230.24 104.443C230.901 103.781 231.62 103.193 232.391 102.677C233.167 102.156 233.984 101.719 234.849 101.365C235.708 101.005 236.594 100.74 237.51 100.557C238.422 100.375 239.349 100.281 240.281 100.281C241.214 100.281 242.135 100.375 243.052 100.557C243.964 100.74 244.849 101.005 245.714 101.365C246.573 101.719 247.391 102.156 248.167 102.677C248.943 103.193 249.661 103.781 250.318 104.443C250.979 105.099 251.568 105.818 252.083 106.594C252.604 107.365 253.042 108.188 253.396 109.047Z" fill="white"/>
<path d="M245.938 105.297C246.594 105.406 247.24 105.578 247.865 105.807C248.49 106.042 249.089 106.333 249.656 106.688C250.224 107.036 250.75 107.443 251.24 107.896C251.729 108.354 252.167 108.849 252.557 109.391C252.948 109.932 253.281 110.51 253.563 111.115C253.839 111.724 254.052 112.354 254.208 113.005C254.359 113.651 254.448 114.313 254.474 114.979C254.495 115.646 254.453 116.313 254.349 116.969C254.24 117.63 254.068 118.271 253.839 118.896C253.604 119.521 253.313 120.12 252.958 120.688C252.609 121.255 252.203 121.786 251.75 122.271C251.297 122.76 250.797 123.203 250.255 123.594C249.714 123.984 249.135 124.318 248.531 124.594C247.922 124.87 247.292 125.089 246.646 125.24C245.995 125.391 245.333 125.479 244.667 125.505C244 125.531 243.339 125.49 242.677 125.38C242.016 125.271 241.375 125.104 240.75 124.87C240.125 124.635 239.526 124.344 238.958 123.995C238.391 123.641 237.865 123.24 237.375 122.781C236.885 122.328 236.443 121.828 236.052 121.286C235.661 120.745 235.328 120.172 235.052 119.563C234.776 118.953 234.563 118.328 234.406 117.677C234.255 117.026 234.167 116.37 234.141 115.698C234.12 115.031 234.161 114.37 234.266 113.708C234.375 113.052 234.542 112.406 234.776 111.781C235.01 111.156 235.302 110.557 235.656 109.99C236.005 109.422 236.406 108.896 236.865 108.406C237.318 107.917 237.818 107.479 238.359 107.089C238.901 106.698 239.474 106.365 240.083 106.083C240.693 105.807 241.318 105.594 241.969 105.438C242.62 105.286 243.281 105.198 243.948 105.172C244.615 105.151 245.276 105.193 245.938 105.297Z" fill="#0C0D0D"/>
<path d="M292.438 108.891C292.656 109.792 292.776 110.708 292.813 111.635C292.844 112.568 292.786 113.49 292.641 114.406C292.495 115.323 292.255 116.219 291.932 117.089C291.609 117.958 291.203 118.792 290.714 119.583C290.229 120.375 289.667 121.109 289.036 121.792C288.401 122.469 287.708 123.083 286.953 123.625C286.203 124.172 285.401 124.635 284.557 125.021C283.714 125.411 282.839 125.708 281.932 125.927C281.031 126.141 280.115 126.266 279.182 126.297C278.255 126.333 277.333 126.276 276.417 126.125C275.5 125.979 274.604 125.74 273.734 125.417C272.865 125.094 272.031 124.687 271.24 124.198C270.448 123.714 269.714 123.151 269.031 122.521C268.354 121.885 267.74 121.193 267.198 120.443C266.651 119.687 266.188 118.885 265.797 118.042C265.411 117.198 265.115 116.323 264.896 115.417C264.682 114.516 264.557 113.599 264.526 112.672C264.49 111.74 264.547 110.818 264.698 109.901C264.844 108.984 265.078 108.089 265.406 107.219C265.729 106.349 266.135 105.516 266.62 104.724C267.109 103.932 267.672 103.198 268.302 102.516C268.938 101.839 269.63 101.224 270.38 100.682C271.135 100.135 271.932 99.6719 272.781 99.2864C273.625 98.8958 274.5 98.5989 275.401 98.3854C276.307 98.1666 277.224 98.0469 278.151 98.0104C279.083 97.9791 280.005 98.0312 280.922 98.1823C281.839 98.3281 282.734 98.5677 283.604 98.8906C284.474 99.2135 285.307 99.6198 286.099 100.109C286.891 100.594 287.625 101.156 288.307 101.786C288.984 102.422 289.599 103.115 290.141 103.87C290.688 104.62 291.151 105.422 291.536 106.266C291.927 107.109 292.224 107.984 292.438 108.891Z" fill="white"/>
<path d="M285.339 113.182C285.339 113.849 285.276 114.51 285.146 115.167C285.016 115.823 284.823 116.458 284.568 117.073C284.312 117.693 284 118.281 283.625 118.833C283.255 119.391 282.833 119.901 282.359 120.375C281.891 120.849 281.375 121.271 280.818 121.641C280.266 122.01 279.677 122.323 279.062 122.578C278.443 122.839 277.807 123.031 277.151 123.161C276.5 123.292 275.839 123.354 275.167 123.354C274.5 123.354 273.839 123.292 273.182 123.161C272.531 123.031 271.896 122.839 271.276 122.578C270.661 122.323 270.073 122.01 269.516 121.641C268.964 121.271 268.448 120.849 267.974 120.375C267.505 119.901 267.083 119.391 266.714 118.833C266.339 118.281 266.026 117.693 265.771 117.073C265.516 116.458 265.323 115.823 265.193 115.167C265.062 114.51 264.995 113.849 264.995 113.182C264.995 112.516 265.062 111.854 265.193 111.198C265.323 110.542 265.516 109.906 265.771 109.292C266.026 108.672 266.339 108.089 266.714 107.531C267.083 106.974 267.505 106.464 267.974 105.99C268.448 105.516 268.964 105.094 269.516 104.724C270.073 104.354 270.661 104.042 271.276 103.786C271.896 103.531 272.531 103.339 273.182 103.208C273.839 103.078 274.5 103.01 275.167 103.01C275.839 103.01 276.5 103.078 277.151 103.208C277.807 103.339 278.443 103.531 279.062 103.786C279.677 104.042 280.266 104.354 280.818 104.724C281.375 105.094 281.891 105.516 282.359 105.99C282.833 106.464 283.255 106.974 283.625 107.531C284 108.089 284.312 108.672 284.568 109.292C284.823 109.906 285.016 110.542 285.146 111.198C285.276 111.854 285.339 112.516 285.339 113.182Z" fill="#0C0D0D"/>
<mask id="mask0_1_84" style="mask-type:luminance" maskUnits="userSpaceOnUse" x="277" y="249" width="118" height="115">
<path d="M277.333 249.333H394.443V364H277.333V249.333Z" fill="white"/>
</mask>
<g mask="url(#mask0_1_84)">
<path d="M393.375 359.057L391.083 359.49C382.656 361.104 374.172 362.266 365.63 362.979C347.318 364.458 332.12 363.172 319.828 359.594C283.901 349.109 272.745 318.948 280.937 280.651C284.812 262.516 298.615 251.823 313.99 249.917C326.062 248.417 336.224 255.193 344.417 264.911C353.219 275.391 359.693 289.276 363.719 299.828C365.63 304.813 366.984 309.063 367.781 311.849C372.443 328.167 385.573 340.635 390.792 345.063C390.979 345.224 391.109 345.422 391.177 345.656C391.245 345.896 391.24 346.13 391.167 346.365C391.089 346.599 390.953 346.797 390.76 346.948C390.568 347.099 390.349 347.188 390.104 347.208C381.672 347.943 368.76 346.552 368.76 346.552C376.594 351.005 387.422 354.745 393.516 356.661C393.786 356.745 394.01 356.901 394.172 357.135C394.339 357.37 394.411 357.63 394.396 357.917C394.375 358.203 394.271 358.453 394.083 358.667C393.891 358.88 393.656 359.01 393.375 359.057Z" fill="#59739D"/>
</g>
<mask id="mask1_1_84" style="mask-type:luminance" maskUnits="userSpaceOnUse" x="293" y="260" width="102" height="104">
<path d="M293.333 260H394.443V364H293.333V260Z" fill="white"/>
</mask>
<g mask="url(#mask1_1_84)">
<path d="M393.375 359.057L391.083 359.49C382.656 361.104 374.172 362.266 365.63 362.979C306.719 365.047 287.26 332.687 296.786 288.104C300.286 271.734 312.766 262.047 326.661 260.333C333.208 259.526 339.125 261.406 344.417 264.927C357.396 280.359 365.302 303.167 367.781 311.865C372.443 328.182 385.573 340.656 390.792 345.078C390.979 345.24 391.109 345.437 391.177 345.677C391.245 345.911 391.24 346.146 391.167 346.38C391.089 346.62 390.953 346.812 390.76 346.964C390.568 347.12 390.349 347.203 390.104 347.224C381.672 347.958 368.76 346.568 368.76 346.568C376.594 351.026 387.422 354.76 393.516 356.682C393.781 356.766 393.99 356.927 394.151 357.156C394.307 357.391 394.375 357.646 394.359 357.922C394.344 358.203 394.245 358.448 394.057 358.656C393.875 358.87 393.646 359 393.375 359.057Z" fill="#6E84AF"/>
</g>
<path d="M270.896 127.516C270.557 127.849 269.156 129.995 268.802 130.458C266.568 133.432 264.188 136.292 261.661 139.031C261.5 139.219 261.318 139.385 261.12 139.531C260.922 139.677 260.708 139.802 260.479 139.901C260.255 140 260.021 140.073 259.776 140.12C259.531 140.167 259.286 140.187 259.042 140.182C258.792 140.177 258.552 140.141 258.307 140.078C258.068 140.021 257.839 139.932 257.62 139.818C257.401 139.708 257.193 139.573 257.005 139.417C256.813 139.255 256.641 139.078 256.49 138.885C253.667 135.453 249.901 130.578 249.302 128.323L249.292 128.182C249.292 128.182 250.057 116.005 256.901 113.724C262.115 111.99 268.5 119.932 271.25 123.849C271.448 124.13 271.589 124.427 271.672 124.755C271.76 125.083 271.786 125.411 271.755 125.75C271.719 126.083 271.63 126.406 271.484 126.708C271.333 127.01 271.141 127.281 270.896 127.516Z" fill="#FFDE59"/>
<path d="M249.292 128.323C251.651 125.885 256.172 122.885 259.635 122.76C263.469 123.031 267.323 125.844 269.755 128.641C267.984 127.849 266.292 127.036 264.583 126.318C262.88 125.599 260.917 124.75 259.083 124.885C256.26 125.417 252.016 127.333 249.292 128.323Z" fill="#0C0D0D"/>
</g>
<defs>
<clipPath id="clip0_1_84">
<rect width="500" height="500" rx="115" fill="white"/>
</clipPath>
</defs>
</svg>
