<svg xmlns="http://www.w3.org/2000/svg" xmlns:xlink="http://www.w3.org/1999/xlink" width="500" zoomAndPan="magnify" viewBox="0 0 375 374.999991" height="500" preserveAspectRatio="xMidYMid meet" version="1.0"><defs><clipPath id="d6192899ed"><path d="M 208 187 L 295.832031 187 L 295.832031 273 L 208 273 Z M 208 187 " clip-rule="nonzero"/></clipPath><clipPath id="dda196a617"><path d="M 220 195 L 295.832031 195 L 295.832031 273 L 220 273 Z M 220 195 " clip-rule="nonzero"/></clipPath></defs><rect x="-37.5" width="450" fill="#ffffff" y="-37.499999" height="449.999989" fill-opacity="1"/><rect x="-37.5" width="450" fill="#ffffff" y="-37.499999" height="449.999989" fill-opacity="1"/><path fill="#6e84af" d="M 96.296875 136.8125 C 96.167969 136.6875 91.988281 132.628906 88.960938 138.425781 C 85.933594 144.222656 95.628906 167.742188 95.808594 168.183594 C 95.675781 168.015625 91.230469 162.429688 85.226562 171.546875 C 79.171875 180.808594 99.074219 203.113281 99.074219 203.113281 C 97.820312 203.675781 96.636719 204.371094 95.535156 205.195312 C 94.429688 206.019531 93.429688 206.953125 92.53125 207.996094 C 91.628906 209.039062 90.855469 210.167969 90.199219 211.382812 C 89.546875 212.59375 89.035156 213.863281 88.660156 215.191406 C 86.035156 224.308594 104.105469 228.066406 104.105469 228.066406 C 104.105469 228.066406 99.332031 231.980469 100.109375 240.195312 C 101.195312 251.839844 122.476562 244.671875 122.476562 244.671875 C 122.476562 244.671875 109.578125 251.667969 113.304688 263.367188 C 117.03125 275.0625 144.761719 268.980469 151.058594 261.347656 C 152.238281 259.917969 153.640625 257.4375 155.148438 254.339844 C 156.261719 252.054688 157.429688 249.433594 158.609375 246.660156 C 162.835938 236.636719 166.003906 226.289062 168.113281 215.621094 C 170.222656 204.949219 171.230469 194.175781 171.136719 183.296875 C 170.96875 167.296875 169.671875 150.441406 165.207031 145.898438 C 159.28125 139.828125 138.398438 116.992188 122.394531 98.308594 C 115.597656 90.351562 109.667969 83.15625 106.148438 78.320312 C 104.957031 76.679688 102.761719 77.050781 101.59375 79.125 C 97.992188 85.5625 92.65625 99.308594 101.546875 113.988281 C 101.546875 113.988281 83.246094 108.617188 96.296875 136.8125 Z M 96.296875 136.8125 " fill-opacity="1" fill-rule="nonzero"/><path fill="#59739d" d="M 119.839844 152.90625 C 119.710938 152.738281 115.261719 147.152344 109.277344 156.265625 C 103.203125 165.515625 123.105469 187.835938 123.105469 187.835938 C 121.847656 188.402344 120.667969 189.097656 119.566406 189.921875 C 118.460938 190.746094 117.460938 191.679688 116.5625 192.722656 C 115.660156 193.765625 114.886719 194.894531 114.230469 196.109375 C 113.578125 197.320312 113.066406 198.589844 112.691406 199.914062 C 110.070312 209.035156 128.121094 212.789062 128.121094 212.789062 C 128.121094 212.789062 123.359375 216.707031 124.128906 224.917969 C 125.214844 236.5625 146.496094 229.398438 146.496094 229.398438 C 146.496094 229.398438 133.625 236.394531 137.324219 248.082031 C 139.179688 253.90625 146.992188 255.320312 155.140625 254.335938 C 156.804688 250.925781 158.585938 246.769531 160.332031 242.480469 C 163.886719 233.671875 166.574219 224.609375 168.394531 215.289062 C 170.210938 205.964844 171.132812 196.554688 171.148438 187.058594 C 171.148438 170.03125 170.015625 150.808594 165.222656 145.90625 C 159.292969 139.835938 138.410156 117 122.40625 98.316406 C 117.835938 98.316406 110.917969 101.191406 120.332031 121.546875 C 120.199219 121.417969 116.019531 117.367188 112.992188 123.160156 C 109.964844 128.949219 119.65625 152.46875 119.839844 152.90625 Z M 119.839844 152.90625 " fill-opacity="1" fill-rule="nonzero"/><path fill="#ffde59" d="M 182.417969 292.414062 C 182.417969 292.414062 172.433594 313.804688 169.582031 313.804688 C 166.726562 313.804688 152.46875 306.972656 149.042969 309.511719 C 145.621094 312.050781 139.0625 320.355469 141.058594 321.210938 C 142.84375 321.972656 185.109375 321.371094 194.140625 321.234375 C 194.230469 321.234375 194.320312 321.222656 194.40625 321.195312 C 194.492188 321.171875 194.574219 321.136719 194.648438 321.09375 C 194.726562 321.046875 194.796875 320.992188 194.859375 320.929688 C 194.921875 320.867188 194.976562 320.796875 195.019531 320.71875 C 195.066406 320.640625 195.097656 320.558594 195.121094 320.472656 C 195.144531 320.386719 195.15625 320.296875 195.15625 320.207031 C 195.15625 320.117188 195.144531 320.03125 195.121094 319.945312 C 195.101562 319.859375 195.066406 319.777344 195.023438 319.699219 C 193.523438 317.046875 190.175781 311.867188 186.976562 312.078125 C 183.988281 312.277344 180.304688 313.5625 178.355469 314.320312 C 178.132812 314.40625 177.949219 314.359375 177.796875 314.179688 C 177.648438 313.996094 177.632812 313.808594 177.757812 313.605469 L 189.261719 294.390625 Z M 182.417969 292.414062 " fill-opacity="1" fill-rule="nonzero"/><path fill="#59739d" d="M 158.460938 271.875 C 158.460938 271.875 174.433594 284.421875 177.28125 291.839844 C 180.132812 299.257812 190.40625 299.257812 193.828125 295.832031 C 197.25 292.40625 206.953125 283.851562 213.226562 283.285156 C 219.5 282.71875 158.460938 271.875 158.460938 271.875 Z M 158.460938 271.875 " fill-opacity="1" fill-rule="nonzero"/><path fill="#ffde59" d="M 229.925781 292.414062 C 229.925781 292.414062 239.90625 313.804688 242.761719 313.804688 C 245.613281 313.804688 259.878906 306.972656 263.296875 309.511719 C 266.71875 312.050781 273.28125 320.355469 271.285156 321.210938 C 269.503906 321.972656 227.230469 321.371094 218.207031 321.234375 C 218.117188 321.234375 218.027344 321.222656 217.941406 321.195312 C 217.855469 321.171875 217.773438 321.136719 217.699219 321.09375 C 217.621094 321.046875 217.550781 320.992188 217.488281 320.929688 C 217.425781 320.867188 217.371094 320.796875 217.328125 320.71875 C 217.28125 320.640625 217.25 320.558594 217.226562 320.472656 C 217.203125 320.386719 217.191406 320.296875 217.191406 320.207031 C 217.191406 320.117188 217.203125 320.03125 217.222656 319.945312 C 217.246094 319.859375 217.28125 319.777344 217.324219 319.699219 C 218.820312 317.046875 222.167969 311.867188 225.367188 312.078125 C 228.359375 312.277344 232.042969 313.5625 233.992188 314.320312 C 234.210938 314.402344 234.394531 314.355469 234.546875 314.175781 C 234.699219 313.996094 234.714844 313.808594 234.59375 313.605469 L 223.085938 294.390625 Z M 229.925781 292.414062 " fill-opacity="1" fill-rule="nonzero"/><path fill="#59739d" d="M 253.402344 270.410156 C 253.402344 270.410156 237.914062 284.421875 235.058594 291.839844 C 232.207031 299.257812 221.933594 299.257812 218.515625 295.832031 C 215.09375 292.40625 205.390625 283.851562 199.117188 283.285156 C 192.839844 282.71875 253.402344 270.410156 253.402344 270.410156 Z M 253.402344 270.410156 " fill-opacity="1" fill-rule="nonzero"/><path fill="#59739d" d="M 214.992188 286.542969 C 208.011719 287.238281 201.039062 287.175781 194.074219 286.351562 C 137.285156 279.914062 128.453125 225.917969 153.5625 183.992188 C 158.433594 175.855469 161.605469 168.253906 163.621094 161.039062 C 167.699219 146.394531 166.949219 133.355469 165.757812 120.730469 C 164.488281 107.507812 162.796875 94.746094 165.585938 81.074219 C 171.332031 53.050781 193.511719 54.027344 200.261719 55.007812 C 201.503906 55.1875 202.222656 55.371094 202.222656 55.371094 C 227.175781 60.535156 231.726562 88.917969 234.347656 118.875 C 234.804688 124.070312 235.195312 129.304688 235.617188 134.484375 C 236.359375 143.285156 236.992188 150.695312 237.519531 156.855469 C 237.730469 159.328125 238.058594 161.78125 238.5 164.214844 C 239.5 169.789062 241.09375 175.191406 243.28125 180.421875 C 245.46875 185.648438 248.199219 190.574219 251.46875 195.203125 C 255.539062 200.949219 260.289062 209.023438 265.078125 220.144531 C 276.835938 247.445312 257.464844 282.089844 214.992188 286.542969 Z M 214.992188 286.542969 " fill-opacity="1" fill-rule="nonzero"/><path fill="#6e84af" d="M 214.992188 286.542969 C 212.230469 286.453125 209.394531 286.246094 206.484375 285.921875 C 149.714844 279.492188 140.851562 225.496094 165.96875 183.566406 C 170.84375 175.429688 174.015625 167.828125 176.03125 160.613281 C 180.105469 145.964844 179.363281 132.925781 178.167969 120.300781 C 176.921875 107.085938 175.203125 94.320312 177.996094 80.644531 C 181.589844 63.113281 191.625 56.941406 200.261719 55.007812 C 201.503906 55.1875 202.222656 55.371094 202.222656 55.371094 C 227.175781 60.535156 231.726562 88.917969 234.347656 118.875 C 234.804688 124.070312 235.195312 129.304688 235.617188 134.484375 C 236.359375 143.285156 236.992188 150.695312 237.519531 156.855469 C 237.730469 159.328125 238.058594 161.78125 238.5 164.214844 C 239.5 169.789062 241.09375 175.191406 243.28125 180.421875 C 245.46875 185.648438 248.199219 190.574219 251.46875 195.203125 C 255.539062 200.949219 260.289062 209.023438 265.078125 220.144531 C 276.835938 247.445312 257.464844 282.089844 214.992188 286.542969 Z M 214.992188 286.542969 " fill-opacity="1" fill-rule="nonzero"/><path fill="#ffffff" d="M 190.046875 81.785156 C 190.316406 82.429688 190.515625 83.097656 190.652344 83.78125 C 190.789062 84.46875 190.859375 85.160156 190.859375 85.859375 C 190.859375 86.558594 190.789062 87.25 190.652344 87.9375 C 190.515625 88.621094 190.316406 89.289062 190.046875 89.933594 C 189.78125 90.582031 189.453125 91.195312 189.0625 91.773438 C 188.675781 92.355469 188.234375 92.894531 187.738281 93.386719 C 187.246094 93.882812 186.707031 94.324219 186.125 94.710938 C 185.542969 95.101562 184.929688 95.429688 184.285156 95.695312 C 183.636719 95.964844 182.972656 96.167969 182.285156 96.300781 C 181.601562 96.4375 180.910156 96.507812 180.210938 96.507812 C 179.511719 96.507812 178.816406 96.4375 178.132812 96.300781 C 177.445312 96.167969 176.78125 95.964844 176.136719 95.695312 C 175.488281 95.429688 174.875 95.101562 174.292969 94.710938 C 173.714844 94.324219 173.175781 93.882812 172.679688 93.386719 C 172.1875 92.894531 171.746094 92.355469 171.355469 91.773438 C 170.96875 91.195312 170.640625 90.582031 170.371094 89.933594 C 170.105469 89.289062 169.902344 88.621094 169.765625 87.9375 C 169.628906 87.25 169.5625 86.558594 169.5625 85.859375 C 169.5625 85.160156 169.628906 84.46875 169.765625 83.78125 C 169.902344 83.097656 170.105469 82.429688 170.371094 81.785156 C 170.640625 81.140625 170.96875 80.523438 171.355469 79.945312 C 171.746094 79.363281 172.1875 78.824219 172.679688 78.332031 C 173.175781 77.835938 173.714844 77.394531 174.292969 77.007812 C 174.875 76.617188 175.488281 76.289062 176.136719 76.023438 C 176.78125 75.753906 177.445312 75.554688 178.132812 75.417969 C 178.816406 75.28125 179.511719 75.210938 180.210938 75.210938 C 180.910156 75.210938 181.601562 75.28125 182.289062 75.417969 C 182.972656 75.554688 183.636719 75.753906 184.285156 76.023438 C 184.929688 76.289062 185.542969 76.617188 186.125 77.007812 C 186.707031 77.394531 187.246094 77.835938 187.738281 78.332031 C 188.234375 78.824219 188.675781 79.363281 189.0625 79.945312 C 189.453125 80.523438 189.78125 81.140625 190.046875 81.785156 Z M 190.046875 81.785156 " fill-opacity="1" fill-rule="nonzero"/><path fill="#0c0d0d" d="M 184.453125 78.972656 C 184.945312 79.054688 185.429688 79.183594 185.898438 79.355469 C 186.367188 79.53125 186.816406 79.75 187.242188 80.015625 C 187.667969 80.277344 188.0625 80.582031 188.429688 80.921875 C 188.796875 81.265625 189.125 81.636719 189.417969 82.042969 C 189.710938 82.449219 189.960938 82.882812 190.171875 83.335938 C 190.378906 83.792969 190.539062 84.265625 190.65625 84.753906 C 190.769531 85.238281 190.835938 85.734375 190.855469 86.234375 C 190.871094 86.734375 190.839844 87.234375 190.761719 87.726562 C 190.679688 88.222656 190.550781 88.703125 190.378906 89.171875 C 190.203125 89.640625 189.984375 90.089844 189.71875 90.515625 C 189.457031 90.941406 189.152344 91.339844 188.8125 91.703125 C 188.472656 92.070312 188.097656 92.402344 187.691406 92.695312 C 187.285156 92.988281 186.851562 93.238281 186.398438 93.445312 C 185.941406 93.652344 185.46875 93.816406 184.984375 93.929688 C 184.496094 94.042969 184 94.109375 183.5 94.128906 C 183 94.148438 182.503906 94.117188 182.007812 94.035156 C 181.511719 93.953125 181.03125 93.828125 180.5625 93.652344 C 180.09375 93.476562 179.644531 93.257812 179.21875 92.996094 C 178.792969 92.730469 178.398438 92.429688 178.03125 92.085938 C 177.664062 91.746094 177.332031 91.371094 177.039062 90.964844 C 176.746094 90.558594 176.496094 90.128906 176.289062 89.671875 C 176.082031 89.214844 175.921875 88.746094 175.804688 88.257812 C 175.691406 87.769531 175.625 87.277344 175.605469 86.773438 C 175.589844 86.273438 175.621094 85.777344 175.699219 85.28125 C 175.78125 84.789062 175.90625 84.304688 176.082031 83.835938 C 176.257812 83.367188 176.476562 82.917969 176.742188 82.492188 C 177.003906 82.066406 177.304688 81.671875 177.648438 81.304688 C 177.988281 80.9375 178.363281 80.609375 178.769531 80.316406 C 179.175781 80.023438 179.605469 79.773438 180.0625 79.5625 C 180.519531 79.355469 180.988281 79.195312 181.476562 79.078125 C 181.964844 78.964844 182.460938 78.898438 182.960938 78.878906 C 183.460938 78.863281 183.957031 78.894531 184.453125 78.972656 Z M 184.453125 78.972656 " fill-opacity="1" fill-rule="nonzero"/><path fill="#ffffff" d="M 219.328125 81.667969 C 219.492188 82.34375 219.582031 83.03125 219.609375 83.726562 C 219.632812 84.425781 219.589844 85.117188 219.480469 85.804688 C 219.371094 86.492188 219.191406 87.164062 218.949219 87.816406 C 218.707031 88.46875 218.402344 89.09375 218.035156 89.6875 C 217.671875 90.28125 217.25 90.832031 216.777344 91.34375 C 216.300781 91.851562 215.78125 92.3125 215.214844 92.71875 C 214.652344 93.128906 214.050781 93.476562 213.417969 93.765625 C 212.785156 94.058594 212.128906 94.28125 211.449219 94.445312 C 210.773438 94.605469 210.085938 94.699219 209.386719 94.722656 C 208.691406 94.75 208 94.707031 207.3125 94.59375 C 206.625 94.484375 205.953125 94.304688 205.300781 94.0625 C 204.648438 93.820312 204.023438 93.515625 203.429688 93.148438 C 202.835938 92.785156 202.285156 92.363281 201.773438 91.890625 C 201.265625 91.414062 200.804688 90.894531 200.398438 90.332031 C 199.988281 89.765625 199.640625 89.164062 199.347656 88.53125 C 199.058594 87.898438 198.835938 87.242188 198.671875 86.5625 C 198.511719 85.886719 198.417969 85.199219 198.394531 84.503906 C 198.367188 83.804688 198.410156 83.113281 198.523438 82.425781 C 198.632812 81.738281 198.808594 81.066406 199.054688 80.414062 C 199.296875 79.761719 199.601562 79.136719 199.964844 78.542969 C 200.332031 77.949219 200.753906 77.398438 201.226562 76.886719 C 201.703125 76.378906 202.222656 75.917969 202.785156 75.511719 C 203.351562 75.101562 203.949219 74.753906 204.585938 74.464844 C 205.21875 74.171875 205.875 73.949219 206.550781 73.789062 C 207.230469 73.625 207.917969 73.535156 208.613281 73.507812 C 209.3125 73.484375 210.003906 73.523438 210.691406 73.636719 C 211.378906 73.746094 212.050781 73.925781 212.703125 74.167969 C 213.355469 74.410156 213.980469 74.714844 214.574219 75.082031 C 215.167969 75.445312 215.71875 75.867188 216.230469 76.339844 C 216.738281 76.816406 217.199219 77.335938 217.605469 77.902344 C 218.015625 78.464844 218.363281 79.066406 218.652344 79.699219 C 218.945312 80.332031 219.167969 80.988281 219.328125 81.667969 Z M 219.328125 81.667969 " fill-opacity="1" fill-rule="nonzero"/><path fill="#0c0d0d" d="M 214.003906 84.886719 C 214.003906 85.386719 213.957031 85.882812 213.859375 86.375 C 213.761719 86.867188 213.617188 87.34375 213.425781 87.804688 C 213.234375 88.269531 213 88.710938 212.71875 89.125 C 212.441406 89.542969 212.125 89.925781 211.769531 90.28125 C 211.417969 90.636719 211.03125 90.953125 210.613281 91.230469 C 210.199219 91.507812 209.757812 91.742188 209.296875 91.933594 C 208.832031 92.128906 208.355469 92.273438 207.863281 92.371094 C 207.375 92.46875 206.878906 92.515625 206.375 92.515625 C 205.875 92.515625 205.378906 92.46875 204.886719 92.371094 C 204.398438 92.273438 203.921875 92.128906 203.457031 91.933594 C 202.996094 91.742188 202.554688 91.507812 202.136719 91.230469 C 201.722656 90.953125 201.335938 90.636719 200.980469 90.28125 C 200.628906 89.925781 200.3125 89.542969 200.035156 89.125 C 199.753906 88.710938 199.519531 88.269531 199.328125 87.804688 C 199.136719 87.34375 198.992188 86.867188 198.894531 86.375 C 198.796875 85.882812 198.746094 85.386719 198.746094 84.886719 C 198.746094 84.386719 198.796875 83.890625 198.894531 83.398438 C 198.992188 82.90625 199.136719 82.429688 199.328125 81.96875 C 199.519531 81.503906 199.753906 81.066406 200.035156 80.648438 C 200.3125 80.230469 200.628906 79.847656 200.980469 79.492188 C 201.335938 79.136719 201.722656 78.820312 202.136719 78.542969 C 202.554688 78.265625 202.996094 78.03125 203.457031 77.839844 C 203.921875 77.648438 204.398438 77.503906 204.886719 77.40625 C 205.378906 77.308594 205.875 77.257812 206.375 77.257812 C 206.878906 77.257812 207.375 77.308594 207.863281 77.40625 C 208.355469 77.503906 208.832031 77.648438 209.296875 77.839844 C 209.757812 78.03125 210.199219 78.265625 210.613281 78.542969 C 211.03125 78.820312 211.417969 79.136719 211.769531 79.492188 C 212.125 79.847656 212.441406 80.230469 212.71875 80.648438 C 213 81.066406 213.234375 81.503906 213.425781 81.96875 C 213.617188 82.429688 213.761719 82.90625 213.859375 83.398438 C 213.957031 83.890625 214.003906 84.386719 214.003906 84.886719 Z M 214.003906 84.886719 " fill-opacity="1" fill-rule="nonzero"/><g clip-path="url(#d6192899ed)"><path fill="#59739d" d="M 295.03125 269.292969 L 293.3125 269.617188 C 286.992188 270.828125 280.628906 271.699219 274.222656 272.234375 C 260.488281 273.34375 249.089844 272.378906 239.871094 269.695312 C 212.925781 261.832031 204.558594 239.210938 210.703125 210.488281 C 213.609375 196.886719 223.960938 188.867188 235.492188 187.4375 C 244.546875 186.3125 252.167969 191.394531 258.3125 198.683594 C 264.914062 206.542969 269.769531 216.957031 272.789062 224.871094 C 274.222656 228.609375 275.238281 231.796875 275.835938 233.886719 C 279.332031 246.125 289.179688 255.476562 293.09375 258.796875 C 293.234375 258.917969 293.332031 259.066406 293.382812 259.242188 C 293.433594 259.421875 293.429688 259.597656 293.375 259.773438 C 293.316406 259.949219 293.214844 260.097656 293.070312 260.210938 C 292.925781 260.324219 292.761719 260.390625 292.578125 260.40625 C 286.253906 260.957031 276.570312 259.914062 276.570312 259.914062 C 282.445312 263.253906 290.566406 266.058594 295.136719 267.496094 C 295.339844 267.558594 295.507812 267.675781 295.628906 267.851562 C 295.753906 268.027344 295.808594 268.222656 295.796875 268.4375 C 295.78125 268.652344 295.703125 268.839844 295.5625 269 C 295.417969 269.160156 295.242188 269.257812 295.03125 269.292969 Z M 295.03125 269.292969 " fill-opacity="1" fill-rule="nonzero"/></g><g clip-path="url(#dda196a617)"><path fill="#6e84af" d="M 295.03125 269.292969 L 293.3125 269.617188 C 286.992188 270.828125 280.628906 271.699219 274.222656 272.234375 C 230.039062 273.785156 215.445312 249.515625 222.589844 216.078125 C 225.214844 203.800781 234.574219 196.535156 244.996094 195.25 C 249.90625 194.644531 254.34375 196.054688 258.3125 198.695312 C 268.046875 210.269531 273.976562 227.375 275.835938 233.898438 C 279.332031 246.136719 289.179688 255.492188 293.09375 258.808594 C 293.234375 258.929688 293.332031 259.078125 293.382812 259.257812 C 293.433594 259.433594 293.429688 259.609375 293.375 259.785156 C 293.316406 259.964844 293.214844 260.109375 293.070312 260.222656 C 292.925781 260.339844 292.761719 260.402344 292.578125 260.417969 C 286.253906 260.96875 276.570312 259.925781 276.570312 259.925781 C 282.445312 263.269531 290.566406 266.070312 295.136719 267.511719 C 295.335938 267.574219 295.492188 267.695312 295.613281 267.867188 C 295.730469 268.042969 295.78125 268.234375 295.769531 268.441406 C 295.757812 268.652344 295.683594 268.835938 295.542969 268.992188 C 295.40625 269.152344 295.234375 269.25 295.03125 269.292969 Z M 295.03125 269.292969 " fill-opacity="1" fill-rule="nonzero"/></g><path fill="#ffde59" d="M 203.171875 95.636719 C 202.917969 95.886719 201.867188 97.496094 201.601562 97.84375 C 199.925781 100.074219 198.140625 102.21875 196.246094 104.273438 C 196.125 104.414062 195.988281 104.539062 195.839844 104.648438 C 195.691406 104.757812 195.53125 104.851562 195.359375 104.925781 C 195.191406 105 195.015625 105.054688 194.832031 105.089844 C 194.648438 105.125 194.464844 105.140625 194.28125 105.136719 C 194.09375 105.132812 193.914062 105.105469 193.730469 105.058594 C 193.550781 105.015625 193.378906 104.949219 193.214844 104.863281 C 193.050781 104.78125 192.894531 104.679688 192.753906 104.5625 C 192.609375 104.441406 192.480469 104.308594 192.367188 104.164062 C 190.25 101.589844 187.425781 97.933594 186.976562 96.242188 L 186.96875 96.136719 C 186.96875 96.136719 187.542969 87.003906 192.675781 85.292969 C 196.585938 83.992188 201.375 89.949219 203.4375 92.886719 C 203.585938 93.097656 203.691406 93.320312 203.753906 93.566406 C 203.820312 93.8125 203.839844 94.058594 203.816406 94.3125 C 203.789062 94.5625 203.722656 94.804688 203.613281 95.03125 C 203.5 95.257812 203.355469 95.460938 203.171875 95.636719 Z M 203.171875 95.636719 " fill-opacity="1" fill-rule="nonzero"/><path fill="#0c0d0d" d="M 186.96875 96.242188 C 188.738281 94.414062 192.128906 92.164062 194.726562 92.070312 C 197.601562 92.273438 200.492188 94.382812 202.316406 96.480469 C 200.988281 95.886719 199.71875 95.277344 198.4375 94.738281 C 197.160156 94.199219 195.6875 93.5625 194.3125 93.664062 C 192.195312 94.0625 189.011719 95.5 186.96875 96.242188 Z M 186.96875 96.242188 " fill-opacity="1" fill-rule="nonzero"/></svg>